<svg xmlns="http://www.w3.org/2000/svg" style="display:none">
  <symbol id="logo" viewBox="0 0 24 24" fill="none" stroke="currentColor" stroke-width="2" stroke-linecap="round" stroke-linejoin="round">
    <path d="M22 13V6a2 2 0 0 0-2-2H4a2 2 0 0 0-2 2v12c0 1.1.9 2 2 2h9" />
    <path d="m22 7-8.97 5.7a1.94 1.94 0 0 1-2.06 0L2 7" />
    <circle cx="18" cy="18" r="3" />
    <polyline points="18 16.5 18 18 19 19" />
  </symbol>
  <symbol id="repo" viewBox="0 0 24 24" fill="none" stroke="currentColor" stroke-width="1.8" stroke-linecap="round" stroke-linejoin="round">
    <path d="M10 7H6a2 2 0 0 0-2 2v9a2 2 0 0 0 2 2h9a2 2 0 0 0 2-2v-4" />
    <path d="M10 14 20 4" />
    <path d="M14 4h6v6" />
  </symbol>
  <symbol id="users" viewBox="0 0 24 24" fill="none" stroke="currentColor" stroke-width="1.8" stroke-linecap="round" stroke-linejoin="round">
    <path d="M16.5 19a4.5 4.5 0 0 0-9 0" />
    <circle cx="12" cy="9" r="3" />
    <path d="M20 18a3.8 3.8 0 0 0-3-3.7" />
    <path d="M7 14.3A3.8 3.8 0 0 0 4 18" />
    <path d="M16.8 6.7a2.6 2.6 0 1 1 0 4.6" />
  </symbol>
  <symbol id="boxes" viewBox="0 0 24 24" fill="none" stroke="currentColor" stroke-width="1.8" stroke-linecap="round" stroke-linejoin="round">
    <rect x="4" y="4" width="6" height="6" rx="1.5" />
    <rect x="14" y="4" width="6" height="6" rx="1.5" />
    <rect x="4" y="14" width="6" height="6" rx="1.5" />
    <rect x="14" y="14" width="6" height="6" rx="1.5" />
  </symbol>
  <symbol id="logout" viewBox="0 0 24 24" fill="none" stroke="currentColor" stroke-width="1.8" stroke-linecap="round" stroke-linejoin="round">
    <path d="M10 5H6a2 2 0 0 0-2 2v10a2 2 0 0 0 2 2h4" />
    <path d="M14 8l4 4-4 4" />
    <path d="M18 12H9" />
  </symbol>
  <symbol id="history" viewBox="0 0 24 24" fill="none" stroke="currentColor" stroke-width="1.8" stroke-linecap="round" stroke-linejoin="round">
    <path d="M4 12a8 8 0 1 0 2.3-5.6" />
    <path d="M4 4v4h4" />
    <path d="M12 8v4l2.5 2.5" />
  </symbol>
  <symbol id="spark" viewBox="0 0 24 24" fill="none" stroke="currentColor" stroke-width="1.8" stroke-linecap="round" stroke-linejoin="round">
    <path d="M12 3l1.8 5.2L19 10l-5.2 1.8L12 17l-1.8-5.2L5 10l5.2-1.8L12 3Z" />
  </symbol>
  <symbol id="settings" viewBox="0 0 24 24" fill="none" stroke="currentColor" stroke-width="1.8" stroke-linecap="round" stroke-linejoin="round">
    <path d="M4 7h8" />
    <path d="M16 7h4" />
    <path d="M4 17h4" />
    <path d="M12 17h8" />
    <circle cx="14" cy="7" r="2" />
    <circle cx="10" cy="17" r="2" />
  </symbol>
  <symbol id="globe" viewBox="0 0 24 24" fill="none" stroke="currentColor" stroke-width="1.8" stroke-linecap="round" stroke-linejoin="round">
    <circle cx="12" cy="12" r="9" />
    <path d="M3 12h18" />
    <path d="M12 3a14.5 14.5 0 0 1 0 18" />
    <path d="M12 3a14.5 14.5 0 0 0 0 18" />
  </symbol>
  <symbol id="ruler" viewBox="0 0 24 24" fill="none" stroke="currentColor" stroke-width="1.8" stroke-linecap="round" stroke-linejoin="round">
    <path d="m5 19 14-14" />
    <path d="M7 17 5 15" />
    <path d="M10 14 8 12" />
    <path d="M13 11 11 9" />
    <path d="M16 8 14 6" />
    <rect x="4" y="10" width="16" height="4" rx="1" transform="rotate(-45 12 12)" />
  </symbol>
  <symbol id="dice" viewBox="0 0 24 24" fill="none" stroke="currentColor" stroke-width="1.8" stroke-linecap="round" stroke-linejoin="round">
    <rect x="4" y="4" width="16" height="16" rx="3" />
    <circle cx="9" cy="9" r="1" fill="currentColor" stroke="none" />
    <circle cx="15" cy="15" r="1" fill="currentColor" stroke="none" />
    <circle cx="15" cy="9" r="1" fill="currentColor" stroke="none" />
    <circle cx="9" cy="15" r="1" fill="currentColor" stroke="none" />
  </symbol>
  <symbol id="user" viewBox="0 0 24 24" fill="none" stroke="currentColor" stroke-width="1.8" stroke-linecap="round" stroke-linejoin="round">
    <circle cx="12" cy="8" r="3.5" />
    <path d="M5 19a7 7 0 0 1 14 0" />
  </symbol>
  <symbol id="mail" viewBox="0 0 24 24" fill="none" stroke="currentColor" stroke-width="1.8" stroke-linecap="round" stroke-linejoin="round">
    <rect x="3" y="5.5" width="18" height="13" rx="2.5" />
    <path d="M4.5 8 12 13l7.5-5" />
  </symbol>
  <symbol id="copy" viewBox="0 0 24 24" fill="none" stroke="currentColor" stroke-width="1.8" stroke-linecap="round" stroke-linejoin="round">
    <rect x="9" y="9" width="11" height="11" rx="2" />
    <path d="M6 15H5a2 2 0 0 1-2-2V5a2 2 0 0 1 2-2h8a2 2 0 0 1 2 2v1" />
  </symbol>
  <symbol id="send" viewBox="0 0 24 24" fill="none" stroke="currentColor" stroke-width="1.8" stroke-linecap="round" stroke-linejoin="round">
    <path d="m3 11 18-8-8 18-2.5-7.5L3 11Z" />
    <path d="M10.5 13.5 21 3" />
  </symbol>
  <symbol id="trash" viewBox="0 0 24 24" fill="none" stroke="currentColor" stroke-width="1.8" stroke-linecap="round" stroke-linejoin="round">
    <path d="M4 7h16" />
    <path d="M10 3h4" />
    <path d="M18 7l-1 12a2 2 0 0 1-2 2H9a2 2 0 0 1-2-2L6 7" />
    <path d="M10 11v6" />
    <path d="M14 11v6" />
  </symbol>
  <symbol id="refresh" viewBox="0 0 24 24" fill="none" stroke="currentColor" stroke-width="1.8" stroke-linecap="round" stroke-linejoin="round">
    <path d="M20 5v5h-5" />
    <path d="M4 19v-5h5" />
    <path d="M6.5 9A7 7 0 0 1 18 7" />
    <path d="M17.5 15A7 7 0 0 1 6 17" />
  </symbol>
  <symbol id="forward" viewBox="0 0 24 24" fill="none" stroke="currentColor" stroke-width="1.8" stroke-linecap="round" stroke-linejoin="round">
    <path d="M14 6l6 6-6 6" />
    <path d="M4 12h16" />
    <path d="M4 18v-2a4 4 0 0 1 4-4h12" />
  </symbol>
  <symbol id="star" viewBox="0 0 24 24" fill="none" stroke="currentColor" stroke-width="1.8" stroke-linecap="round" stroke-linejoin="round">
    <path d="m12 3 2.8 5.7 6.2.9-4.5 4.4 1 6.2L12 17.2 6.5 20.2l1-6.2L3 9.6l6.2-.9L12 3Z" />
  </symbol>
  <symbol id="pin" viewBox="0 0 24 24" fill="none" stroke="currentColor" stroke-width="1.8" stroke-linecap="round" stroke-linejoin="round">
    <path d="m9 4 6 6" />
    <path d="m8 9 7-7 4 4-7 7" />
    <path d="M11 12 4 19" />
  </symbol>
  <symbol id="inbox" viewBox="0 0 24 24" fill="none" stroke="currentColor" stroke-width="1.8" stroke-linecap="round" stroke-linejoin="round">
    <path d="M4 12h4l2 3h4l2-3h4" />
    <path d="M5 12 7 5h10l2 7v5a2 2 0 0 1-2 2H7a2 2 0 0 1-2-2v-5Z" />
  </symbol>
  <symbol id="home" viewBox="0 0 24 24" fill="none" stroke="currentColor" stroke-width="1.8" stroke-linecap="round" stroke-linejoin="round">
    <path d="M4 10.5 12 4l8 6.5" />
    <path d="M6 9.5V20h12V9.5" />
  </symbol>
  <symbol id="search" viewBox="0 0 24 24" fill="none" stroke="currentColor" stroke-width="1.8" stroke-linecap="round" stroke-linejoin="round">
    <circle cx="11" cy="11" r="6" />
    <path d="m20 20-4.2-4.2" />
  </symbol>
  <symbol id="check" viewBox="0 0 24 24" fill="none" stroke="currentColor" stroke-width="1.8" stroke-linecap="round" stroke-linejoin="round">
    <circle cx="12" cy="12" r="9" />
    <path d="m8.5 12.5 2.4 2.4 4.6-5" />
  </symbol>
  <symbol id="ban" viewBox="0 0 24 24" fill="none" stroke="currentColor" stroke-width="1.8" stroke-linecap="round" stroke-linejoin="round">
    <circle cx="12" cy="12" r="9" />
    <path d="m8 16 8-8" />
  </symbol>
  <symbol id="key" viewBox="0 0 24 24" fill="none" stroke="currentColor" stroke-width="1.8" stroke-linecap="round" stroke-linejoin="round">
    <circle cx="8" cy="15" r="3" />
    <path d="M11 15h10" />
    <path d="M17 15v-2" />
    <path d="M20 15v-2" />
  </symbol>
  <symbol id="lock" viewBox="0 0 24 24" fill="none" stroke="currentColor" stroke-width="1.8" stroke-linecap="round" stroke-linejoin="round">
    <rect x="5" y="11" width="14" height="10" rx="2" />
    <path d="M8 11V8a4 4 0 1 1 8 0v3" />
  </symbol>
  <symbol id="edit" viewBox="0 0 24 24" fill="none" stroke="currentColor" stroke-width="1.8" stroke-linecap="round" stroke-linejoin="round">
    <path d="M4 20h4l10.5-10.5a2.1 2.1 0 0 0-4-2L4 18v2Z" />
    <path d="m13.5 6.5 4 4" />
  </symbol>
  <symbol id="warning" viewBox="0 0 24 24" fill="none" stroke="currentColor" stroke-width="1.8" stroke-linecap="round" stroke-linejoin="round">
    <path d="M12 4 3.5 19h17L12 4Z" />
    <path d="M12 9v4" />
    <path d="M12 16h.01" />
  </symbol>
  <symbol id="grid" viewBox="0 0 24 24" fill="none" stroke="currentColor" stroke-width="1.8" stroke-linecap="round" stroke-linejoin="round">
    <rect x="4" y="4" width="6" height="6" rx="1.5" />
    <rect x="14" y="4" width="6" height="6" rx="1.5" />
    <rect x="4" y="14" width="6" height="6" rx="1.5" />
    <rect x="14" y="14" width="6" height="6" rx="1.5" />
  </symbol>
  <symbol id="list" viewBox="0 0 24 24" fill="none" stroke="currentColor" stroke-width="1.8" stroke-linecap="round" stroke-linejoin="round">
    <path d="M8 6h12" />
    <path d="M8 12h12" />
    <path d="M8 18h12" />
    <path d="M4 6h.01" />
    <path d="M4 12h.01" />
    <path d="M4 18h.01" />
  </symbol>
  <symbol id="chevron-left" viewBox="0 0 24 24" fill="none" stroke="currentColor" stroke-width="1.8" stroke-linecap="round" stroke-linejoin="round">
    <path d="m15 18-6-6 6-6" />
  </symbol>
  <symbol id="chevron-right" viewBox="0 0 24 24" fill="none" stroke="currentColor" stroke-width="1.8" stroke-linecap="round" stroke-linejoin="round">
    <path d="m9 6 6 6-6 6" />
  </symbol>
  <symbol id="chevron-down" viewBox="0 0 24 24" fill="none" stroke="currentColor" stroke-width="1.8" stroke-linecap="round" stroke-linejoin="round">
    <path d="m6 9 6 6 6-6" />
  </symbol>
  <symbol id="close" viewBox="0 0 24 24" fill="none" stroke="currentColor" stroke-width="1.8" stroke-linecap="round" stroke-linejoin="round">
    <path d="m6 6 12 12" />
    <path d="m18 6-12 12" />
  </symbol>
  <symbol id="people" viewBox="0 0 24 24" fill="none" stroke="currentColor" stroke-width="1.8" stroke-linecap="round" stroke-linejoin="round">
    <circle cx="9" cy="9" r="3" />
    <circle cx="17" cy="10" r="2.5" />
    <path d="M3.5 19a5.5 5.5 0 0 1 11 0" />
    <path d="M14 18a4.5 4.5 0 0 1 7 0" />
  </symbol>
  <symbol id="eye" viewBox="0 0 24 24" fill="none" stroke="currentColor" stroke-width="1.8" stroke-linecap="round" stroke-linejoin="round">
    <path d="M2.5 12s3.5-6 9.5-6 9.5 6 9.5 6-3.5 6-9.5 6-9.5-6-9.5-6Z" />
    <circle cx="12" cy="12" r="2.5" />
  </symbol>
</svg>
